<svg xmlns="http://www.w3.org/2000/svg" viewBox="0 0 900 260" role="img" aria-labelledby="title desc">
  <title id="title">二質点三ばね系</title>
  <desc id="desc">左右の壁と二つの質点を、ばね定数1の三本のばねで一直線に結んだ模型。</desc>
  <defs>
    <style>
      .wall{stroke:#334155;stroke-width:7}.hatch{stroke:#64748b;stroke-width:3}
      .spring{fill:none;stroke:#2563eb;stroke-width:6;stroke-linejoin:round}
      .mass{fill:#f59e0b;stroke:#78350f;stroke-width:4}.axis{stroke:#94a3b8;stroke-width:2;stroke-dasharray:8 8}
      .label{font:24px system-ui,sans-serif;fill:#0f172a}.small{font:19px system-ui,sans-serif;fill:#334155}
    </style>
  </defs>
  <line class="axis" x1="70" y1="142" x2="830" y2="142"/>
  <g><line class="wall" x1="75" y1="65" x2="75" y2="205"/>
    <path class="hatch" d="M75 75L50 95M75 100L50 120M75 125L50 145M75 150L50 170M75 175L50 195"/></g>
  <g><line class="wall" x1="825" y1="65" x2="825" y2="205"/>
    <path class="hatch" d="M825 75L850 95M825 100L850 120M825 125L850 145M825 150L850 170M825 175L850 195"/></g>
  <polyline class="spring" points="75,142 105,142 120,116 145,168 170,116 195,168 220,116 245,168 260,142 290,142"/>
  <rect class="mass" x="290" y="102" width="100" height="80" rx="8"/>
  <polyline class="spring" points="390,142 420,142 435,116 460,168 485,116 510,168 535,116 560,168 575,142 605,142"/>
  <rect class="mass" x="605" y="102" width="100" height="80" rx="8"/>
  <polyline class="spring" points="705,142 735,142 748,116 766,168 784,116 802,168 812,142 825,142"/>
  <text class="label" x="340" y="150" text-anchor="middle">q₁</text>
  <text class="label" x="655" y="150" text-anchor="middle">q₂</text>
  <text class="small" x="182" y="92" text-anchor="middle">k = 1</text>
  <text class="small" x="498" y="92" text-anchor="middle">k = 1</text>
  <text class="small" x="765" y="92" text-anchor="middle">k = 1</text>
  <text class="small" x="340" y="218" text-anchor="middle">m = 1</text>
  <text class="small" x="655" y="218" text-anchor="middle">m = 1</text>
</svg>
