<svg xmlns="http://www.w3.org/2000/svg" viewBox="0 0 900 390" role="img" aria-labelledby="t d"><title id="t">BCDS propeller pairの平面配置</title><desc id="d">同じ鋭角不等辺三角形を反射接着して得た左右の多角形輪郭とタイル番号</desc><rect width="900" height="390" fill="white"/><g stroke="#334155" stroke-width="2.5"><g fill="#dbeafe"><polygon points="130,220 260,220 175.5,129"/><polygon points="269.6,90.3 260,220 175.5,129"/><polygon points="130,220 52,116 175.5,129"/><polygon points="130,220 52,324 175.5,311"/><polygon points="130,220 260,220 175.5,311"/><polygon points="150,30.5 52,116 175.5,129"/><polygon points="269.6,90.3 260,220 357,142.5"/></g><g fill="#fee2e2"><polygon points="580,220 710,220 625.5,129"/><polygon points="580,220 502,116 625.5,129"/><polygon points="580,220 710,220 625.5,311"/><polygon points="719.6,349.7 710,220 625.5,311"/><polygon points="719.6,90.3 710,220 625.5,129"/><polygon points="580,220 502,116 479.9,238.2"/><polygon points="719.6,90.3 621.7,4.9 625.5,129"/></g></g><path d="M175.5 129L269.6 90.3L357 142.5L260 220L175.5 311L52 324L130 220L52 116L150 30.5Z" fill="none" stroke="#0f172a" stroke-width="6"/><path d="M719.6 90.3L710 220L719.6 349.7L625.5 311L580 220L479.9 238.2L502 116L625.5 129L621.7 4.9Z" fill="none" stroke="#0f172a" stroke-width="6"/><g font-family="sans-serif" font-size="18" text-anchor="middle" fill="#0f172a"><text x="205" y="375" font-size="23">左 propeller</text><text x="650" y="375" font-size="23">右 propeller</text><text x="188" y="195">0</text><text x="230" y="135">1</text><text x="110" y="150">2</text><text x="115" y="278">3</text><text x="190" y="270">4</text><text x="120" y="95">5</text><text x="295" y="145">6</text><text x="640" y="195">0</text><text x="570" y="150">1</text><text x="655" y="270">2</text><text x="690" y="300">3</text><text x="675" y="135">4</text><text x="530" y="190">5</text><text x="655" y="75">6</text></g><g font-family="sans-serif" font-size="15" fill="#475569"><text x="148" y="227">c</text><text x="210" y="170">a</text><text x="150" y="165">b</text><text x="598" y="227">c</text><text x="660" y="170">a</text><text x="600" y="165">b</text></g></svg>
