<svg xmlns="http://www.w3.org/2000/svg" viewBox="0 0 900 420" role="img" aria-labelledby="t d"><title id="t">7×7 transplantation incidence matrix</title><desc id="d">各右タイルに加える三つの左タイルを青いセルで示す</desc><rect width="900" height="420" fill="white"/><g font-family="sans-serif" text-anchor="middle"><text x="470" y="35" font-size="23">列: 左タイル u₀,…,u₆　／　行: 右タイル v₀,…,v₆</text><g transform="translate(210 60)"><g fill="#dbeafe" stroke="#94a3b8"><rect x="70" y="0" width="55" height="42"/><rect x="125" y="0" width="55" height="42"/><rect x="235" y="0" width="55" height="42"/><rect x="0" y="42" width="55" height="42"/><rect x="55" y="42" width="55" height="42"/><rect x="165" y="42" width="55" height="42"/><rect x="0" y="84" width="55" height="42"/><rect x="110" y="84" width="55" height="42"/><rect x="330" y="84" width="55" height="42"/><rect x="55" y="126" width="55" height="42"/><rect x="275" y="126" width="55" height="42"/><rect x="330" y="126" width="55" height="42"/><rect x="0" y="168" width="55" height="42"/><rect x="220" y="168" width="55" height="42"/><rect x="275" y="168" width="55" height="42"/><rect x="165" y="210" width="55" height="42"/><rect x="220" y="210" width="55" height="42"/><rect x="330" y="210" width="55" height="42"/><rect x="110" y="252" width="55" height="42"/><rect x="165" y="252" width="55" height="42"/><rect x="275" y="252" width="55" height="42"/></g><g fill="none" stroke="#64748b"><rect width="385" height="294"/><path d="M55 0V294M110 0V294M165 0V294M220 0V294M275 0V294M330 0V294M0 42H385M0 84H385M0 126H385M0 168H385M0 210H385M0 252H385"/></g><g font-size="18" fill="#0f172a"><text x="27" y="-12">u₀</text><text x="82" y="-12">u₁</text><text x="137" y="-12">u₂</text><text x="192" y="-12">u₃</text><text x="247" y="-12">u₄</text><text x="302" y="-12">u₅</text><text x="357" y="-12">u₆</text><text x="-28" y="28">v₀</text><text x="-28" y="70">v₁</text><text x="-28" y="112">v₂</text><text x="-28" y="154">v₃</text><text x="-28" y="196">v₄</text><text x="-28" y="238">v₅</text><text x="-28" y="280">v₆</text></g></g><text x="720" y="180" font-size="20" fill="#2563eb">青いセル = 係数1</text><text x="720" y="215" font-size="18">各行に3個</text><text x="720" y="245" font-size="18">各列に3個</text><text x="720" y="285" font-size="18">det T = −24</text></g></svg>
